<?xml version="1.0" standalone="no"?>
<!DOCTYPE svg PUBLIC "-//W3C//DTD SVG 20010904//EN"
 "http://www.w3.org/TR/2001/REC-SVG-20010904/DTD/svg10.dtd">
<svg version="1.0" xmlns="http://www.w3.org/2000/svg"
 width="512.000000pt" height="512.000000pt" viewBox="0 0 512.000000 512.000000"
 preserveAspectRatio="xMidYMid meet">
<metadata>
Created by potrace 1.11, written by Peter Selinger 2001-2013
</metadata>
<g transform="translate(0.000000,512.000000) scale(0.100000,-0.100000)"
fill="#000000" stroke="none">
<path d="M2489 4128 c-205 -245 -573 -933 -700 -1308 -76 -224 -43 -362 95
-402 22 -6 42 -12 44 -13 1 -1 -41 -83 -95 -181 -214 -396 -314 -669 -329
-905 -14 -197 62 -441 157 -511 40 -30 98 -34 150 -11 47 21 140 101 189 164
l31 39 -51 -35 c-28 -19 -66 -37 -85 -41 -86 -16 -164 54 -214 191 -44 122
-55 199 -48 344 11 243 101 492 326 906 75 140 94 181 82 184 -63 14 -113 46
-139 90 -24 41 -27 55 -26 131 1 102 26 185 121 405 128 296 323 664 478 901
41 63 73 114 71 114 -3 0 -28 -28 -57 -62z"/>
<path d="M2591 3745 c-75 -86 -77 -94 -71 -260 7 -158 18 -203 59 -225 54 -29
127 6 161 76 12 25 21 46 19 47 -2 2 -17 7 -33 12 -60 20 -70 51 -76 215 -3
89 -9 154 -16 160 -8 8 -20 1 -43 -25z"/>
<path d="M260 3235 l0 -195 330 0 330 0 0 -675 0 -675 200 0 201 0 -3 73 -3
72 -132 3 -133 3 0 669 0 670 -330 0 -329 0 -3 123 -3 122 -62 3 -63 3 0 -196z"/>
<path d="M3100 3423 c0 -4 -25 -180 -56 -391 -32 -210 -55 -384 -52 -387 6 -7
108 28 108 36 0 9 97 667 105 717 l6 32 -56 0 c-30 0 -55 -3 -55 -7z"/>
<path d="M4111 3408 c-4 -13 -56 -162 -115 -331 -113 -322 -114 -328 -83 -400
11 -25 21 0 145 355 73 211 132 386 132 391 0 4 -16 7 -35 7 -28 0 -37 -5 -44
-22z"/>
<path d="M1440 3110 l0 -70 100 0 100 0 0 70 0 70 -100 0 -100 0 0 -70z"/>
<path d="M3490 2830 c0 -3 -9 -75 -20 -160 -11 -85 -20 -170 -20 -189 0 -18
59 -204 132 -412 l131 -379 81 0 81 0 23 63 c12 34 22 67 22 74 0 7 -18 13
-42 15 l-43 3 -172 495 c-95 272 -172 493 -173 490z"/>
<path d="M4303 2673 l-53 -148 45 -400 c25 -220 45 -408 45 -417 0 -17 16 -18
201 -18 l201 0 -7 68 c-4 37 -9 70 -12 75 -2 4 -60 7 -127 7 l-124 0 -6 43
c-3 23 -26 236 -51 472 -26 237 -49 438 -53 448 -5 12 -23 -29 -59 -130z"/>
<path d="M2426 2578 c-25 -32 -28 -46 -7 -33 12 7 45 65 37 65 -3 0 -16 -14
-30 -32z"/>
<path d="M2930 2211 c-104 -39 -154 -66 -201 -108 -43 -39 -83 -101 -58 -90
40 18 187 76 207 82 28 8 28 4 -3 -205 -14 -91 -25 -173 -25 -182 0 -17 16
-18 194 -18 107 0 197 3 199 8 3 4 8 37 12 75 l7 67 -144 0 -144 0 28 183 c32
211 32 217 16 217 -7 -1 -47 -14 -88 -29z"/>
<path d="M2154 2113 c-32 -31 -55 -66 -67 -98 -43 -123 0 -275 78 -275 14 0
25 -3 25 -6 0 -18 -86 -186 -135 -261 l-55 -88 50 55 c87 94 203 280 249 398
21 53 21 53 2 47 -66 -21 -118 91 -101 215 4 30 6 56 5 58 -1 2 -25 -19 -51
-45z"/>
</g>
</svg>
