<?xml version="1.0" encoding="utf-8"?>
<!-- Generator: Adobe Illustrator 19.1.1, SVG Export Plug-In . SVG Version: 6.00 Build 0)  -->
<svg version="1.1" id="Layer_1" xmlns="http://www.w3.org/2000/svg" xmlns:xlink="http://www.w3.org/1999/xlink" x="0px" y="0px"
	 width="25.27px" height="53.86px" viewBox="0 0 25.27 53.86" style="enable-background:new 0 0 25.27 53.86;" xml:space="preserve"
	>
<style type="text/css">
	.st0{fill:#EA7524;}
</style>
<g>
	<path class="st0" d="M24.39,32.19c-0.23,0.36-0.6,0.55-1.11,0.6c-0.63,0.04-4.12,1.29-4.38,1.47c-0.69,0.26-1.46,0.8-2.3,1.6
		c-5.8,12-10.1,18-12.9,18c-1.52,0-2.65-1.62-3.41-4.85c-0.39-1.69-0.39-3.59,0.02-5.71c0.42-2.21,1.31-4.76,2.67-7.64
		c0.75-1.59,2.05-4.05,3.89-7.37c-0.53,0.13-1.13,0-1.78-0.4c-0.95-0.58-1.36-1.73-1.21-3.45c0.1-1.37,1.1-4.09,3-8.17
		c1.91-4.07,3.87-7.71,5.88-10.89C15.02,1.8,16.62,0,17.56,0c1.24,0,2.09,1.73,2.54,5.18c0.28,2.17,0.2,4.45-0.26,6.84
		c-0.16,0.84-0.35,1.48-0.57,1.92c-0.43,0.84-1.03,1.26-1.79,1.26c-0.57,0-0.98-0.26-1.23-0.8c-0.24-0.53-0.34-1.62-0.28-3.25
		c0.04-1.33-0.08-1.99-0.35-1.99c-0.46,0-1.69,1.83-3.67,5.48c-1.98,3.65-3.07,5.99-3.26,7.01c-0.08,0.44,0.11,0.66,0.56,0.66
		c0.51,0,1.46-0.66,2.86-1.99s2.27-1.99,2.62-1.99c0.56-0.05,0.99,0.24,1.3,0.86c0.31,0.62,0.35,1.48,0.15,2.59
		c-0.23,1.24-0.78,2.61-1.64,4.12c-0.07,0.14-0.44,0.47-1.1,1c-0.66,0.53-1.1,1.04-1.3,1.52c-1.49,1.55-3.07,4.13-4.76,7.74
		c-1.69,3.61-2.73,6.5-3.14,8.67c-0.3,1.6-0.13,2.4,0.51,2.4c0.69,0,1.71-0.96,3.07-2.86s2.39-3.81,3.09-5.72
		c-0.73,0.36-1.29,0.14-1.67-0.63c-0.38-0.78-0.46-1.78-0.22-3.03c0.07-0.35,0.15-0.64,0.27-0.86c0.45-0.97,2.45-2.41,5.98-4.32
		c3.44-1.82,8.49-3.73,9.06-3.47c0.4,0.18,0.68,0.65,0.83,1.43s0.14,1.61-0.02,2.5C24.99,31.01,24.74,31.65,24.39,32.19"/>
</g>
</svg>
