<?xml version="1.0" encoding="utf-8"?>
<!-- Generator: Adobe Illustrator 19.1.1, SVG Export Plug-In . SVG Version: 6.00 Build 0)  -->
<svg version="1.1" id="Layer_1" xmlns="http://www.w3.org/2000/svg" xmlns:xlink="http://www.w3.org/1999/xlink" x="0px" y="0px"
	 width="24.63px" height="38.54px" viewBox="11.96 10.27 24.63 38.54" style="enable-background:new 11.96 10.27 24.63 38.54;"
	 xml:space="preserve">
<style type="text/css">
	.st0{fill:#92D5FF;}
</style>
<path class="st0" d="M24.28,10.27c-3.45,0-6.69,1.34-9.12,3.78C6.21,23,18.29,41.04,24.28,48.81C30.27,41.04,42.35,23,33.4,14.05
	C30.96,11.61,27.72,10.27,24.28,10.27z M24.28,32.07c-2.42,0-4.7-0.94-6.42-2.66c-3.54-3.54-3.54-9.29,0-12.83
	c1.71-1.71,3.99-2.66,6.42-2.66c2.42,0,4.7,0.94,6.42,2.66c1.71,1.71,2.66,3.99,2.66,6.42c0,2.42-0.94,4.7-2.66,6.42
	C28.98,31.12,26.7,32.07,24.28,32.07z"/>
</svg>
