<?xml version="1.0" encoding="utf-8"?>
<!-- Generator: Adobe Illustrator 19.1.1, SVG Export Plug-In . SVG Version: 6.00 Build 0)  -->
<svg version="1.1" id="Layer_1" xmlns="http://www.w3.org/2000/svg" xmlns:xlink="http://www.w3.org/1999/xlink" x="0px" y="0px"
	 width="219.43px" height="58.26px" viewBox="0 0 219.43 58.26" style="enable-background:new 0 0 219.43 58.26;"
	 xml:space="preserve">
<style type="text/css">
	.st0{fill:#EA7524;}
	.st1{fill:#FFFFFF;}
</style>
<polyline points="16.48,44.02 10.35,44.02 10.35,22.91 0,22.91 0,16.96 21.54,16.96 21.54,22.91 16.48,22.91 "/>
<polyline points="20.54,16.96 27.89,16.96 32.3,24.31 36.71,16.96 44.06,16.96 35.37,31.02 35.37,44.02 29.24,44.02 29.24,31.02 "/>
<g>
	<path d="M50.97,29.09h0.59c2,0,4.25-0.43,4.25-3.37c0-2.94-2.25-3.37-4.25-3.37h-0.59V29.09z M64.45,44.02h-7.63l-5.79-10.41h-0.06
		v10.41h-6.13V16.96H54c4.66,0,8.19,2.55,8.19,8.33c0,3.73-1.81,6.96-5.16,7.65"/>
</g>
<polyline points="71.62,22.91 71.62,27.44 78.53,27.44 78.53,33.4 71.62,33.4 71.62,38.06 78.91,38.06 78.91,44.02 65.49,44.02 
	65.49,16.96 78.91,16.96 78.91,22.91 "/>
<g>
	<path d="M95.01,23.92c-1.13-1.08-2.56-1.79-4.06-1.79c-1.13,0-2.63,0.75-2.63,2.26c0,1.58,1.66,2.19,2.72,2.58l1.56,0.54
		c3.28,1.11,5.82,3.02,5.82,7.39c0,2.69-0.56,5.46-2.44,7.29c-1.85,1.79-4.32,2.55-6.69,2.55c-2.97,0-5.88-1.15-8.29-3.09l2.63-5.67
		c1.53,1.54,3.34,2.8,5.44,2.8c1.44,0,2.97-0.82,2.97-2.73c0-1.97-2.41-2.65-3.72-3.09c-3.85-1.25-6.38-2.4-6.38-7.64
		c0-5.49,3.41-9.08,8.13-9.08c2.38,0,5.29,0.86,7.38,2.23"/>
</g>
<polyline points="123.5,16.96 129.54,16.96 134.33,31.42 139.39,16.96 145.49,16.96 149.05,44.02 142.92,44.02 141.21,28.44 
	141.15,28.44 135.48,44.02 133.04,44.02 127.63,28.44 127.57,28.44 125.6,44.02 119.5,44.02 "/>
<g>
	<path d="M156.22,30.02c0,4.66,3,8.07,6.66,8.07c3.66,0,6.66-3.41,6.66-8.07c0-3.73-3-7.14-6.66-7.14
		C159.22,22.88,156.22,26.29,156.22,30.02 M175.92,29.98c0,8.76-5.47,14.93-13.04,14.93c-7.57,0-13.04-6.17-13.04-14.93
		c0-8.18,6.25-13.93,13.04-13.93C169.67,16.06,175.92,21.8,175.92,29.98"/>
	<path d="M184.28,29.09h0.6c2,0,4.25-0.43,4.25-3.37c0-2.94-2.25-3.37-4.25-3.37h-0.6V29.09z M197.75,44.02h-7.63l-5.78-10.41h-0.06
		v10.41h-6.13V16.96h9.17c4.66,0,8.19,2.55,8.19,8.33c0,3.73-1.81,6.96-5.16,7.65"/>
</g>
<polyline points="204.92,22.91 204.92,27.44 211.83,27.44 211.83,33.4 204.92,33.4 204.92,38.06 217.48,38.06 217.48,44.02 
	198.79,44.02 198.79,16.96 212.2,16.96 212.2,22.91 "/>
<g>
	<path d="M122.85,36.59c-0.23,0.35-0.6,0.55-1.11,0.6c-0.63,0.04-4.12,1.29-4.38,1.47c-0.69,0.26-1.46,0.8-2.3,1.6
		c-5.8,12-10.1,18-12.9,18c-1.52,0-2.65-1.62-3.41-4.85c-0.39-1.69-0.39-3.59,0.02-5.71c0.42-2.21,1.31-4.76,2.67-7.64
		c0.75-1.59,2.05-4.05,3.89-7.37c-0.53,0.13-1.13,0-1.78-0.4c-0.95-0.58-1.36-1.73-1.21-3.45c0.1-1.37,1.1-4.09,3-8.17
		c1.91-4.07,3.87-7.7,5.88-10.89c2.26-3.58,3.86-5.38,4.8-5.38c1.24,0,2.08,1.73,2.54,5.18c0.28,2.17,0.2,4.45-0.26,6.85
		c-0.16,0.84-0.35,1.48-0.57,1.92c-0.43,0.84-1.03,1.26-1.79,1.26c-0.57,0-0.98-0.26-1.22-0.8c-0.25-0.53-0.34-1.62-0.28-3.25
		c0.04-1.33-0.08-1.99-0.35-1.99c-0.46,0-1.68,1.83-3.67,5.48c-1.98,3.65-3.07,5.99-3.26,7.01c-0.08,0.44,0.11,0.66,0.56,0.66
		c0.51,0,1.46-0.66,2.86-1.99c1.4-1.33,2.27-1.99,2.61-1.99c0.56-0.05,0.99,0.24,1.3,0.86c0.31,0.62,0.36,1.48,0.15,2.59
		c-0.23,1.24-0.78,2.61-1.64,4.12c-0.07,0.13-0.44,0.47-1.1,1c-0.66,0.53-1.1,1.04-1.3,1.52c-1.49,1.55-3.07,4.13-4.76,7.74
		c-1.69,3.61-2.73,6.5-3.14,8.67c-0.3,1.6-0.13,2.4,0.51,2.4c0.69,0,1.71-0.96,3.07-2.86c1.36-1.9,2.39-3.81,3.09-5.72
		c-0.73,0.36-1.29,0.15-1.67-0.63c-0.38-0.78-0.46-1.78-0.22-3.03c0.07-0.35,0.15-0.64,0.27-0.86c0.46-0.97,2.45-2.41,5.98-4.32
		c3.44-1.82,8.49-3.73,9.06-3.47c0.4,0.18,0.68,0.65,0.83,1.43c0.15,0.77,0.14,1.61-0.02,2.5C123.44,35.42,123.2,36.06,122.85,36.59
		"/>
</g>
<polyline class="st0" points="18.42,41.81 12.29,41.81 12.29,20.71 1.94,20.71 1.94,14.75 23.48,14.75 23.48,20.71 18.42,20.71 "/>
<polyline class="st0" points="22.48,14.75 29.83,14.75 34.24,22.11 38.65,14.75 46,14.75 37.31,28.82 37.31,41.81 31.18,41.81 
	31.18,28.82 "/>
<g>
	<path class="st0" d="M52.92,26.88h0.59c2,0,4.25-0.43,4.25-3.37c0-2.94-2.25-3.37-4.25-3.37h-0.59V26.88z M66.39,41.82h-7.63
		l-5.79-10.41h-0.06v10.41h-6.13V14.75h9.16c4.66,0,8.19,2.55,8.19,8.33c0,3.73-1.81,6.96-5.16,7.65"/>
</g>
<polyline class="st0" points="73.56,20.71 73.56,25.23 80.47,25.23 80.47,31.19 73.56,31.19 73.56,35.86 80.85,35.86 80.85,41.81 
	67.43,41.81 67.43,14.75 80.85,14.75 80.85,20.71 "/>
<g>
	<path class="st0" d="M96.95,21.72c-1.13-1.08-2.56-1.79-4.06-1.79c-1.13,0-2.63,0.75-2.63,2.26c0,1.58,1.66,2.19,2.72,2.58
		l1.56,0.54c3.28,1.11,5.82,3.02,5.82,7.39c0,2.7-0.56,5.46-2.44,7.29c-1.85,1.79-4.32,2.55-6.69,2.55c-2.97,0-5.88-1.15-8.29-3.09
		l2.63-5.67c1.53,1.54,3.34,2.8,5.44,2.8c1.44,0,2.97-0.82,2.97-2.73c0-1.97-2.41-2.66-3.72-3.09c-3.85-1.25-6.38-2.4-6.38-7.64
		c0-5.49,3.41-9.08,8.13-9.08c2.38,0,5.29,0.86,7.38,2.23"/>
</g>
<polyline class="st0" points="125.45,14.75 131.48,14.75 136.27,29.22 141.34,14.75 147.43,14.75 151,41.81 144.87,41.81 
	143.15,26.24 143.09,26.24 137.43,41.81 134.99,41.81 129.58,26.24 129.51,26.24 127.54,41.81 121.44,41.81 "/>
<g>
	<path class="st0" d="M158.16,27.82c0,4.66,3,8.07,6.66,8.07c3.66,0,6.66-3.41,6.66-8.07c0-3.73-3-7.14-6.66-7.14
		C161.16,20.68,158.16,24.08,158.16,27.82 M177.87,27.78c0,8.76-5.47,14.93-13.04,14.93c-7.57,0-13.04-6.17-13.04-14.93
		c0-8.18,6.25-13.92,13.04-13.92C171.61,13.86,177.87,19.6,177.87,27.78"/>
	<path class="st0" d="M186.22,26.88h0.6c2,0,4.25-0.43,4.25-3.37c0-2.94-2.25-3.37-4.25-3.37h-0.6V26.88z M199.7,41.82h-7.63
		l-5.78-10.41h-0.06v10.41h-6.13V14.75h9.17c4.65,0,8.19,2.55,8.19,8.33c0,3.73-1.81,6.96-5.16,7.65"/>
</g>
<polyline class="st0" points="206.86,20.71 206.86,25.23 213.77,25.23 213.77,31.19 206.86,31.19 206.86,35.86 219.43,35.86 
	219.43,41.81 200.73,41.81 200.73,14.75 214.14,14.75 214.14,20.71 "/>
<g>
	<path class="st1" d="M124.79,34.39c-0.23,0.36-0.6,0.55-1.11,0.6c-0.63,0.04-4.12,1.29-4.38,1.47c-0.69,0.26-1.46,0.8-2.3,1.6
		c-5.8,12-10.1,18-12.9,18c-1.52,0-2.65-1.62-3.41-4.85c-0.39-1.69-0.39-3.59,0.02-5.71c0.42-2.21,1.31-4.76,2.67-7.64
		c0.75-1.59,2.05-4.05,3.89-7.37c-0.53,0.13-1.13,0-1.78-0.4c-0.95-0.58-1.36-1.73-1.21-3.45c0.1-1.37,1.1-4.09,3-8.17
		c1.91-4.07,3.87-7.71,5.88-10.89c2.26-3.58,3.86-5.38,4.8-5.38c1.24,0,2.09,1.73,2.54,5.18c0.28,2.17,0.2,4.45-0.26,6.84
		c-0.16,0.84-0.35,1.48-0.57,1.92c-0.43,0.84-1.03,1.26-1.79,1.26c-0.57,0-0.98-0.26-1.23-0.8c-0.24-0.53-0.34-1.62-0.28-3.25
		c0.04-1.33-0.08-1.99-0.35-1.99c-0.46,0-1.69,1.83-3.67,5.48c-1.98,3.65-3.07,5.99-3.26,7.01c-0.08,0.44,0.11,0.66,0.56,0.66
		c0.51,0,1.46-0.66,2.86-1.99c1.4-1.33,2.27-1.99,2.62-1.99c0.56-0.05,0.99,0.24,1.3,0.86c0.31,0.62,0.35,1.48,0.15,2.59
		c-0.23,1.24-0.78,2.61-1.64,4.12c-0.07,0.14-0.44,0.47-1.1,1c-0.66,0.53-1.1,1.04-1.3,1.52c-1.49,1.55-3.07,4.13-4.76,7.74
		c-1.69,3.61-2.73,6.5-3.14,8.67c-0.3,1.6-0.13,2.4,0.51,2.4c0.69,0,1.71-0.96,3.07-2.86c1.36-1.9,2.39-3.81,3.09-5.72
		c-0.73,0.36-1.29,0.14-1.67-0.63c-0.38-0.78-0.46-1.78-0.22-3.03c0.07-0.35,0.15-0.64,0.27-0.86c0.45-0.97,2.45-2.41,5.98-4.32
		c3.44-1.82,8.49-3.73,9.06-3.47c0.4,0.18,0.68,0.65,0.83,1.43c0.15,0.78,0.14,1.61-0.02,2.5
		C125.39,33.21,125.14,33.85,124.79,34.39"/>
</g>
<g>
	<path class="st1" d="M5.94,5.09c0.67,0.95,1.21,1.8,1.63,2.53h0.04C7.55,6.41,7.53,5.53,7.53,4.98V0.77h1.7v9.31H7.44L4.41,5.79
		c-0.53-0.74-1.09-1.6-1.66-2.58H2.71c0.06,1.14,0.08,2.02,0.08,2.65v4.22h-1.7V0.77h1.79L5.94,5.09z"/>
	<path class="st1" d="M15.21,9.36h-0.03c-0.09,0.1-0.2,0.2-0.33,0.3c-0.13,0.1-0.28,0.2-0.45,0.29c-0.17,0.09-0.35,0.16-0.56,0.22
		c-0.2,0.06-0.42,0.08-0.66,0.08c-0.32,0-0.62-0.05-0.9-0.15s-0.52-0.24-0.72-0.43c-0.2-0.19-0.36-0.41-0.47-0.68
		c-0.11-0.27-0.17-0.56-0.17-0.89c0-0.36,0.07-0.69,0.2-0.97c0.13-0.29,0.32-0.53,0.55-0.73c0.24-0.2,0.52-0.35,0.85-0.46
		c0.33-0.1,0.69-0.16,1.09-0.16c0.29,0,0.56,0.02,0.81,0.06c0.25,0.04,0.46,0.08,0.65,0.13V5.69c0-0.16-0.03-0.31-0.08-0.46
		c-0.05-0.15-0.14-0.28-0.26-0.39c-0.12-0.11-0.27-0.2-0.46-0.27c-0.19-0.07-0.42-0.1-0.7-0.1c-0.33,0-0.67,0.04-1,0.11
		c-0.33,0.07-0.7,0.19-1.09,0.33V3.63c0.34-0.15,0.7-0.26,1.08-0.34c0.38-0.08,0.78-0.12,1.2-0.13c0.49,0,0.92,0.06,1.29,0.18
		c0.37,0.12,0.68,0.29,0.93,0.5c0.25,0.21,0.43,0.46,0.56,0.75c0.12,0.29,0.18,0.6,0.18,0.94v2.54c0,0.45,0,0.83,0.01,1.15
		c0.01,0.32,0.02,0.61,0.03,0.86h-1.49L15.21,9.36z M15.08,7.2c-0.16-0.04-0.34-0.07-0.54-0.1c-0.2-0.03-0.41-0.04-0.62-0.04
		c-0.4,0-0.72,0.08-0.96,0.24c-0.23,0.16-0.35,0.4-0.35,0.73c0,0.15,0.03,0.29,0.08,0.4c0.05,0.11,0.13,0.21,0.22,0.28
		c0.09,0.07,0.2,0.13,0.32,0.17c0.12,0.04,0.25,0.06,0.38,0.06c0.17,0,0.32-0.02,0.47-0.07c0.15-0.04,0.29-0.1,0.41-0.17
		c0.13-0.07,0.24-0.14,0.34-0.23c0.1-0.08,0.18-0.16,0.25-0.24V7.2z"/>
	<path class="st1" d="M22.7,10.07c-0.19,0.06-0.41,0.1-0.66,0.13c-0.26,0.03-0.5,0.05-0.72,0.05c-0.57,0-1.03-0.09-1.39-0.27
		c-0.36-0.18-0.61-0.45-0.76-0.79c-0.11-0.25-0.16-0.58-0.16-1V4.69h-1.26V3.33h1.26V1.45h1.65v1.89h1.95v1.36h-1.95v3.28
		c0,0.26,0.04,0.45,0.12,0.58c0.14,0.21,0.42,0.32,0.83,0.32c0.19,0,0.38-0.01,0.57-0.04c0.19-0.03,0.37-0.07,0.53-0.11V10.07z"/>
	<path class="st1" d="M23.99,0h1.73v1.79h-1.73V0z M24.03,3.33h1.65v6.74h-1.65V3.33z"/>
	<path class="st1" d="M33.96,6.71c0,0.53-0.08,1.01-0.24,1.45c-0.16,0.44-0.38,0.81-0.68,1.12c-0.29,0.31-0.65,0.55-1.07,0.72
		c-0.42,0.17-0.88,0.25-1.4,0.25c-0.53,0-1-0.08-1.42-0.25c-0.42-0.17-0.78-0.41-1.07-0.72c-0.29-0.31-0.52-0.68-0.67-1.12
		c-0.16-0.44-0.23-0.92-0.23-1.45s0.08-1.01,0.24-1.45c0.16-0.44,0.38-0.81,0.68-1.12c0.29-0.31,0.65-0.55,1.07-0.72
		c0.42-0.17,0.88-0.25,1.4-0.25c0.53,0,1,0.08,1.42,0.25c0.42,0.17,0.78,0.41,1.07,0.72c0.29,0.31,0.52,0.68,0.67,1.12
		C33.88,5.7,33.96,6.18,33.96,6.71z M32.25,6.71c0-0.36-0.04-0.67-0.13-0.95c-0.08-0.27-0.2-0.5-0.35-0.69
		c-0.15-0.19-0.33-0.32-0.54-0.42c-0.21-0.09-0.44-0.14-0.68-0.14c-0.24,0-0.47,0.05-0.67,0.14c-0.21,0.09-0.38,0.23-0.53,0.42
		c-0.15,0.19-0.26,0.42-0.35,0.69c-0.08,0.27-0.13,0.59-0.13,0.95c0,0.36,0.04,0.67,0.13,0.95c0.08,0.27,0.2,0.5,0.35,0.69
		c0.15,0.18,0.33,0.32,0.54,0.42c0.21,0.09,0.43,0.14,0.68,0.14c0.25,0,0.47-0.05,0.67-0.14c0.2-0.1,0.38-0.23,0.53-0.42
		c0.15-0.18,0.26-0.41,0.35-0.69C32.21,7.38,32.25,7.06,32.25,6.71z"/>
	<path class="st1" d="M36.94,4.27h0.03c0.1-0.14,0.22-0.28,0.37-0.41c0.15-0.13,0.32-0.25,0.51-0.36c0.19-0.1,0.4-0.18,0.63-0.25
		s0.47-0.09,0.73-0.09c0.25,0,0.48,0.03,0.71,0.08c0.23,0.06,0.44,0.14,0.63,0.26c0.19,0.12,0.36,0.27,0.5,0.46
		c0.15,0.19,0.26,0.41,0.34,0.67c0.05,0.14,0.08,0.3,0.09,0.47c0.02,0.17,0.02,0.37,0.02,0.59v4.38h-1.65V5.96
		c0-0.18-0.01-0.34-0.02-0.47c-0.01-0.13-0.04-0.24-0.08-0.34c-0.08-0.21-0.21-0.37-0.38-0.46c-0.17-0.09-0.37-0.14-0.62-0.14
		c-0.32,0-0.63,0.08-0.92,0.23c-0.29,0.15-0.56,0.37-0.78,0.66v4.64h-1.65V3.33h1.36L36.94,4.27z"/>
	<path class="st1" d="M47.29,9.36h-0.03c-0.09,0.1-0.2,0.2-0.33,0.3c-0.13,0.1-0.28,0.2-0.45,0.29c-0.17,0.09-0.35,0.16-0.56,0.22
		c-0.2,0.06-0.42,0.08-0.66,0.08c-0.32,0-0.62-0.05-0.9-0.15c-0.28-0.1-0.52-0.24-0.72-0.43c-0.2-0.19-0.36-0.41-0.47-0.68
		c-0.11-0.27-0.17-0.56-0.17-0.89c0-0.36,0.07-0.69,0.2-0.97c0.13-0.29,0.32-0.53,0.55-0.73c0.24-0.2,0.52-0.35,0.85-0.46
		c0.33-0.1,0.69-0.16,1.09-0.16c0.29,0,0.56,0.02,0.81,0.06c0.25,0.04,0.46,0.08,0.65,0.13V5.69c0-0.16-0.03-0.31-0.08-0.46
		c-0.05-0.15-0.14-0.28-0.26-0.39c-0.12-0.11-0.27-0.2-0.46-0.27c-0.19-0.07-0.42-0.1-0.7-0.1c-0.33,0-0.67,0.04-1,0.11
		c-0.33,0.07-0.7,0.19-1.09,0.33V3.63c0.34-0.15,0.7-0.26,1.08-0.34c0.38-0.08,0.78-0.12,1.2-0.13c0.49,0,0.92,0.06,1.29,0.18
		c0.37,0.12,0.68,0.29,0.93,0.5c0.25,0.21,0.43,0.46,0.56,0.75c0.12,0.29,0.18,0.6,0.18,0.94v2.54c0,0.45,0,0.83,0.01,1.15
		c0.01,0.32,0.02,0.61,0.03,0.86h-1.49L47.29,9.36z M47.16,7.2C47,7.16,46.82,7.13,46.62,7.1c-0.2-0.03-0.41-0.04-0.62-0.04
		c-0.4,0-0.72,0.08-0.96,0.24c-0.23,0.16-0.35,0.4-0.35,0.73c0,0.15,0.03,0.29,0.08,0.4c0.05,0.11,0.13,0.21,0.22,0.28
		c0.09,0.07,0.2,0.13,0.32,0.17c0.12,0.04,0.25,0.06,0.38,0.06c0.17,0,0.32-0.02,0.47-0.07c0.15-0.04,0.29-0.1,0.41-0.17
		c0.13-0.07,0.24-0.14,0.34-0.23c0.1-0.08,0.18-0.16,0.25-0.24V7.2z"/>
	<path class="st1" d="M50.73,10.08V0h1.65v10.08H50.73z"/>
	<path class="st1" d="M62.25,5.09c0.67,0.95,1.21,1.8,1.63,2.53h0.04c-0.06-1.21-0.08-2.09-0.08-2.64V0.77h1.71v9.31h-1.79
		l-3.03-4.29c-0.53-0.74-1.09-1.6-1.66-2.58h-0.04c0.06,1.14,0.08,2.02,0.08,2.65v4.22h-1.7V0.77h1.79L62.25,5.09z"/>
	<path class="st1" d="M71.03,8.92c0.32,0,0.65-0.03,1-0.1c0.35-0.06,0.7-0.16,1.06-0.28v1.31c-0.21,0.09-0.54,0.18-0.98,0.26
		c-0.44,0.08-0.9,0.13-1.37,0.13c-0.48,0-0.93-0.06-1.36-0.18c-0.43-0.12-0.8-0.32-1.12-0.6c-0.32-0.27-0.57-0.63-0.76-1.06
		c-0.19-0.44-0.28-0.96-0.28-1.59c0-0.61,0.09-1.15,0.26-1.61c0.18-0.46,0.41-0.84,0.71-1.14c0.3-0.3,0.64-0.53,1.02-0.68
		c0.38-0.15,0.78-0.23,1.19-0.23c0.43,0,0.82,0.06,1.18,0.19c0.36,0.13,0.67,0.33,0.93,0.61s0.47,0.64,0.61,1.07
		C73.26,5.49,73.33,6,73.33,6.6c0,0.23-0.01,0.43-0.02,0.59h-4.42c0.02,0.31,0.09,0.58,0.21,0.8c0.12,0.22,0.27,0.4,0.46,0.54
		c0.19,0.14,0.41,0.24,0.66,0.3C70.47,8.89,70.74,8.92,71.03,8.92z M70.37,4.45c-0.21,0-0.39,0.04-0.56,0.11
		c-0.16,0.08-0.3,0.18-0.42,0.31c-0.12,0.13-0.21,0.29-0.28,0.46C69.04,5.52,69,5.71,68.97,5.91h2.65c0-0.2-0.03-0.39-0.08-0.56
		c-0.05-0.18-0.13-0.33-0.24-0.46c-0.1-0.13-0.23-0.24-0.39-0.31C70.76,4.49,70.58,4.45,70.37,4.45z"/>
	<path class="st1" d="M78.98,10.07c-0.19,0.06-0.41,0.1-0.66,0.13c-0.26,0.03-0.5,0.05-0.72,0.05c-0.57,0-1.03-0.09-1.39-0.27
		c-0.36-0.18-0.61-0.45-0.76-0.79c-0.11-0.25-0.16-0.58-0.16-1V4.69h-1.26V3.33h1.26V1.45h1.65v1.89h1.95v1.36h-1.95v3.28
		c0,0.26,0.04,0.45,0.12,0.58c0.14,0.21,0.42,0.32,0.83,0.32c0.19,0,0.38-0.01,0.57-0.04c0.19-0.03,0.37-0.07,0.53-0.11V10.07z"/>
	<path class="st1" d="M84.69,5.16c-0.13,0.67-0.28,1.32-0.46,1.96l-0.81,2.96h-1.62l-2.36-6.74h1.74l0.87,2.82
		c0.2,0.65,0.38,1.29,0.53,1.9h0.03c0.13-0.59,0.29-1.23,0.47-1.9l0.77-2.82h1.74l0.76,2.82c0.16,0.6,0.32,1.23,0.47,1.9h0.03
		c0.16-0.63,0.33-1.26,0.53-1.9l0.87-2.82h1.74l-2.36,6.74h-1.62l-0.81-2.96c-0.19-0.66-0.34-1.32-0.46-1.96H84.69z"/>
	<path class="st1" d="M97.37,6.71c0,0.53-0.08,1.01-0.24,1.45c-0.16,0.44-0.38,0.81-0.68,1.12c-0.29,0.31-0.65,0.55-1.07,0.72
		c-0.42,0.17-0.88,0.25-1.4,0.25c-0.53,0-1-0.08-1.42-0.25c-0.42-0.17-0.78-0.41-1.07-0.72c-0.29-0.31-0.52-0.68-0.67-1.12
		c-0.16-0.44-0.23-0.92-0.23-1.45s0.08-1.01,0.24-1.45c0.16-0.44,0.38-0.81,0.68-1.12c0.29-0.31,0.65-0.55,1.07-0.72
		c0.42-0.17,0.88-0.25,1.4-0.25c0.53,0,1,0.08,1.42,0.25c0.42,0.17,0.78,0.41,1.07,0.72c0.29,0.31,0.52,0.68,0.67,1.12
		C97.3,5.7,97.37,6.18,97.37,6.71z M95.67,6.71c0-0.36-0.04-0.67-0.13-0.95c-0.08-0.27-0.2-0.5-0.35-0.69
		c-0.15-0.19-0.33-0.32-0.54-0.42c-0.21-0.09-0.44-0.14-0.68-0.14c-0.24,0-0.47,0.05-0.67,0.14c-0.21,0.09-0.38,0.23-0.53,0.42
		c-0.15,0.19-0.26,0.42-0.35,0.69c-0.08,0.27-0.13,0.59-0.13,0.95c0,0.36,0.04,0.67,0.13,0.95c0.08,0.27,0.2,0.5,0.35,0.69
		c0.15,0.18,0.33,0.32,0.54,0.42c0.21,0.09,0.43,0.14,0.68,0.14c0.25,0,0.47-0.05,0.67-0.14c0.2-0.1,0.38-0.23,0.53-0.42
		c0.15-0.18,0.26-0.41,0.35-0.69C95.63,7.38,95.67,7.06,95.67,6.71z"/>
	<path class="st1" d="M102.84,4.64h-0.14c-0.51,0-0.95,0.08-1.33,0.23c-0.38,0.15-0.68,0.38-0.89,0.69v4.52h-1.65V3.33h1.36
		l0.15,0.94h0.03c0.19-0.34,0.46-0.61,0.8-0.81c0.34-0.2,0.75-0.3,1.23-0.3c0.17,0,0.31,0.01,0.43,0.03V4.64z"/>
	<path class="st1" d="M103.89,0h1.65v6.07h0.04l2.57-2.73h2.04l-2.96,3.17l2.98,3.58h-2l-2.64-3.14h-0.03v3.14h-1.65V0z"/>
</g>
</svg>
