<?xml version="1.0" encoding="utf-8"?>
<!-- Generator: Adobe Illustrator 19.1.1, SVG Export Plug-In . SVG Version: 6.00 Build 0)  -->
<svg version="1.1" id="Layer_1" xmlns="http://www.w3.org/2000/svg" xmlns:xlink="http://www.w3.org/1999/xlink" x="0px" y="0px"
	 width="72px" height="56.06px" viewBox="-116 369.94 72 56.06" style="enable-background:new -116 369.94 72 56.06;"
	 xml:space="preserve">
<style type="text/css">
	.st0{fill:#EA7524;}
	.st1{fill:#FFFFFF;}
</style>
<polyline points="-99.52,411.76 -105.65,411.76 -105.65,390.65 -116,390.65 -116,384.7 -94.46,384.7 -94.46,390.65 -99.52,390.65 
	"/>
<polyline points="-71.5,384.7 -65.46,384.7 -60.67,399.16 -55.61,384.7 -49.51,384.7 -45.95,411.76 -52.08,411.76 -53.79,396.18 
	-53.85,396.18 -59.52,411.76 -61.96,411.76 -67.37,396.18 -67.43,396.18 -69.4,411.76 -75.5,411.76 "/>
<g>
	<path d="M-72.15,404.33c-0.23,0.35-0.6,0.55-1.11,0.6c-0.63,0.04-4.12,1.29-4.38,1.47c-0.69,0.26-1.46,0.8-2.3,1.6
		c-5.8,12-10.1,18-12.9,18c-1.52,0-2.65-1.62-3.41-4.85c-0.39-1.69-0.39-3.59,0.02-5.71c0.42-2.21,1.31-4.76,2.67-7.64
		c0.75-1.59,2.05-4.05,3.89-7.37c-0.53,0.13-1.13,0-1.78-0.4c-0.95-0.58-1.36-1.73-1.21-3.45c0.1-1.37,1.1-4.09,3-8.17
		c1.91-4.07,3.87-7.7,5.88-10.89c2.26-3.58,3.86-5.38,4.8-5.38c1.24,0,2.08,1.73,2.54,5.18c0.28,2.17,0.2,4.45-0.26,6.85
		c-0.16,0.84-0.35,1.48-0.57,1.92c-0.43,0.84-1.03,1.26-1.79,1.26c-0.57,0-0.98-0.26-1.22-0.8c-0.25-0.53-0.34-1.62-0.28-3.25
		c0.04-1.33-0.08-1.99-0.35-1.99c-0.46,0-1.68,1.83-3.67,5.48c-1.98,3.65-3.07,5.99-3.26,7.01c-0.08,0.44,0.11,0.66,0.56,0.66
		c0.51,0,1.46-0.66,2.86-1.99s2.27-1.99,2.61-1.99c0.56-0.05,0.99,0.24,1.3,0.86c0.31,0.62,0.36,1.48,0.15,2.59
		c-0.23,1.24-0.78,2.61-1.64,4.12c-0.07,0.13-0.44,0.47-1.1,1c-0.66,0.53-1.1,1.04-1.3,1.52c-1.49,1.55-3.07,4.13-4.76,7.74
		c-1.69,3.61-2.73,6.5-3.14,8.67c-0.3,1.6-0.13,2.4,0.51,2.4c0.69,0,1.71-0.96,3.07-2.86c1.36-1.9,2.39-3.81,3.09-5.72
		c-0.73,0.36-1.29,0.15-1.67-0.63c-0.38-0.78-0.46-1.78-0.22-3.03c0.07-0.35,0.15-0.64,0.27-0.86c0.46-0.97,2.45-2.41,5.98-4.32
		c3.44-1.82,8.49-3.73,9.06-3.47c0.4,0.18,0.68,0.65,0.83,1.43c0.15,0.77,0.14,1.61-0.02,2.5C-71.56,403.16-71.8,403.8-72.15,404.33
		"/>
</g>
<polyline class="st0" points="-97.58,409.55 -103.71,409.55 -103.71,388.45 -114.06,388.45 -114.06,382.49 -92.52,382.49 
	-92.52,388.45 -97.58,388.45 "/>
<polyline class="st0" points="-69.55,382.49 -63.52,382.49 -58.73,396.96 -53.66,382.49 -47.57,382.49 -44,409.55 -50.13,409.55 
	-51.85,393.98 -51.91,393.98 -57.57,409.55 -60.01,409.55 -65.42,393.98 -65.49,393.98 -67.46,409.55 -73.56,409.55 "/>
<g>
	<path class="st1" d="M-70.21,402.13c-0.23,0.36-0.6,0.55-1.11,0.6c-0.63,0.04-4.12,1.29-4.38,1.47c-0.69,0.26-1.46,0.8-2.3,1.6
		c-5.8,12-10.1,18-12.9,18c-1.52,0-2.65-1.62-3.41-4.85c-0.39-1.69-0.39-3.59,0.02-5.71c0.42-2.21,1.31-4.76,2.67-7.64
		c0.75-1.59,2.05-4.05,3.89-7.37c-0.53,0.13-1.13,0-1.78-0.4c-0.95-0.58-1.36-1.73-1.21-3.45c0.1-1.37,1.1-4.09,3-8.17
		c1.91-4.07,3.87-7.71,5.88-10.89c2.26-3.58,3.86-5.38,4.8-5.38c1.24,0,2.09,1.73,2.54,5.18c0.28,2.17,0.2,4.45-0.26,6.84
		c-0.16,0.84-0.35,1.48-0.57,1.92c-0.43,0.84-1.03,1.26-1.79,1.26c-0.57,0-0.98-0.26-1.23-0.8c-0.24-0.53-0.34-1.62-0.28-3.25
		c0.04-1.33-0.08-1.99-0.35-1.99c-0.46,0-1.69,1.83-3.67,5.48c-1.98,3.65-3.07,5.99-3.26,7.01c-0.08,0.44,0.11,0.66,0.56,0.66
		c0.51,0,1.46-0.66,2.86-1.99c1.4-1.33,2.27-1.99,2.62-1.99c0.56-0.05,0.99,0.24,1.3,0.86c0.31,0.62,0.35,1.48,0.15,2.59
		c-0.23,1.24-0.78,2.61-1.64,4.12c-0.07,0.14-0.44,0.47-1.1,1c-0.66,0.53-1.1,1.04-1.3,1.52c-1.49,1.55-3.07,4.13-4.76,7.74
		c-1.69,3.61-2.73,6.5-3.14,8.67c-0.3,1.6-0.13,2.4,0.51,2.4c0.69,0,1.71-0.96,3.07-2.86s2.39-3.81,3.09-5.72
		c-0.73,0.36-1.29,0.14-1.67-0.63c-0.38-0.78-0.46-1.78-0.22-3.03c0.07-0.35,0.15-0.64,0.27-0.86c0.45-0.97,2.45-2.41,5.98-4.32
		c3.44-1.82,8.49-3.73,9.06-3.47c0.4,0.18,0.68,0.65,0.83,1.43s0.14,1.61-0.02,2.5C-69.61,400.95-69.86,401.59-70.21,402.13"/>
</g>
</svg>
