<?xml version="1.0" encoding="utf-8"?>
<!-- Generator: Adobe Illustrator 19.1.1, SVG Export Plug-In . SVG Version: 6.00 Build 0)  -->
<svg version="1.1" xmlns="http://www.w3.org/2000/svg" xmlns:xlink="http://www.w3.org/1999/xlink" x="0px" y="0px" width="90.76px"
	 height="90.61px" viewBox="18.86 23.6 90.76 90.61" style="enable-background:new 18.86 23.6 90.76 90.61;" xml:space="preserve">
<style type="text/css">
	.st0{opacity:0.2;}
	.st1{fill:#EC7405;}
</style>
<g id="Layer_1" class="st0">
	<g>
		<path d="M98.93,28.6c-3.9-3.14-22.58-10.08-53.16,19.73c-32.21,31.42-25.32,51.71-21.7,55.19l21.01-21.01
			c-2.93-2.93-0.33-6.71,5.59-13.98c3.94-4.8,9.19-10.33,15.13-15.13c4.18-3.35,8.55-6.34,11.62-3.26L98.93,28.6z"/>
		<path d="M33.72,113.24c1.37,1.37,3.44,1.23,4.68-0.02h0.03c0,0,16.35-16.38,16.37-16.4c1.29-1.29,1.26-3.37-0.02-4.65l-5.96-5.96
			l-21.06,21.06c0,0,5.92,5.96,5.94,5.94L33.72,113.24L33.72,113.24z"/>
		<path d="M87.12,59.85c1.37,1.37,3.44,1.23,4.68-0.02l0.02,0.02c0,0,16.83-16.86,16.85-16.88c1.29-1.29,1.26-3.37-0.02-4.65
			l-5.96-5.96L81.17,53.89l5.92,5.95L87.12,59.85z"/>
	</g>
</g>
<g id="Layer_1_copy">
	<g>
		<path class="st1" d="M96.93,26.6c-3.9-3.14-22.58-10.08-53.16,19.73c-32.21,31.42-25.32,51.71-21.7,55.19l21.01-21.01
			c-2.93-2.93-0.33-6.71,5.59-13.98c3.94-4.8,9.19-10.33,15.13-15.13c4.18-3.35,8.55-6.34,11.62-3.26L96.93,26.6z"/>
		<path class="st1" d="M31.72,111.24c1.37,1.37,3.44,1.23,4.68-0.02h0.03c0,0,16.35-16.38,16.37-16.4c1.29-1.29,1.26-3.37-0.02-4.65
			l-5.96-5.96l-21.06,21.06c0,0,5.92,5.96,5.94,5.94L31.72,111.24L31.72,111.24z"/>
		<path class="st1" d="M85.12,57.85c1.37,1.37,3.44,1.23,4.68-0.02l0.02,0.02c0,0,16.83-16.86,16.85-16.88
			c1.29-1.29,1.26-3.37-0.02-4.65l-5.96-5.96L79.17,51.89l5.92,5.95L85.12,57.85z"/>
	</g>
</g>
</svg>
