<?xml version="1.0" encoding="utf-8"?>
<!-- Generator: Adobe Illustrator 18.1.1, SVG Export Plug-In . SVG Version: 6.00 Build 0)  -->
<svg version="1.1"
	 id="svg2" xmlns:cc="http://creativecommons.org/ns#" xmlns:dc="http://purl.org/dc/elements/1.1/" xmlns:svg="http://www.w3.org/2000/svg" xmlns:rdf="http://www.w3.org/1999/02/22-rdf-syntax-ns#"
	 xmlns="http://www.w3.org/2000/svg" xmlns:xlink="http://www.w3.org/1999/xlink" x="0px" y="0px"
	 viewBox="-232 351.1081 99.8919 86.3879" enable-background="new -232 351.1081 99.8919 86.3879" xml:space="preserve">
<path id="path2993" fill="#FFFFFF" stroke="#FFFFFF" stroke-width="8" stroke-linecap="round" stroke-linejoin="round" d="
	M-213.1351,371.3243h77.027l-10.8108,37.8379h-54.8649"/>
<path id="path2991" fill="none" stroke="#FFFFFF" stroke-width="8" stroke-linecap="round" stroke-linejoin="round" d="
	M-203.6081,409.1622l-16.2838-54.0541H-228"/>
<path id="path2995" fill="#FFFFFF" stroke="#FFFFFF" stroke-width="4.0541" d="M-200.973,427.3552
	c0.0031-4.478,3.6357-8.1056,8.1137-8.1025s8.1056,3.6357,8.1025,8.1137c-0.0031,4.4736-3.6289,8.0994-8.1025,8.1025
	c-4.478,0.0031-8.1106-3.6245-8.1137-8.1025C-200.973,427.3627-200.973,427.3589-200.973,427.3552z"/>
<path id="path2997" fill="#FFFFFF" stroke="#FFFFFF" stroke-width="4.0541" d="M-163.1351,427.3568
	c0.0022-4.478,3.6342-8.1063,8.1121-8.1041s8.1063,3.6342,8.1041,8.1122c-0.0022,4.4748-3.6292,8.1018-8.1041,8.1041
	c-4.478,0.0022-8.1099-3.6261-8.1121-8.1041C-163.1351,427.3622-163.1351,427.3595-163.1351,427.3568z"/>
</svg>
