<?xml version="1.0" encoding="utf-8"?>
<!-- Generator: Adobe Illustrator 19.1.1, SVG Export Plug-In . SVG Version: 6.00 Build 0)  -->
<svg version="1.1" id="svg2562" xmlns="http://www.w3.org/2000/svg" xmlns:xlink="http://www.w3.org/1999/xlink" x="0px" y="0px"
	 width="1024px" height="146px" viewBox="206 324 1024 146" style="enable-background:new 206 324 1024 146;" xml:space="preserve">
<style type="text/css">
	.st0{fill:#DE2027;}
	.st1{fill:#231F20;}
</style>
<g id="layer1" transform="translate(-42.54375,-485.00715)">
	<path id="path2500" class="st0" d="M248.544,809.078l72.912,72.912l0.289,0.241l-0.289,0.385l-72.431,72.334h12.802l72.671-72.719
		l-73.152-73.104L248.544,809.078z M306.392,809.078l-12.85,0.048l72.96,72.864l0.193,0.241l-0.193,0.385l-72.431,72.334h12.85
		l72.671-72.719L306.392,809.078z M316.114,809.078l72.864,72.912l0.289,0.241l-0.289,0.385l-72.334,72.334h12.802l72.623-72.719
		l-73.152-73.153H316.114z M338.589,809.078l72.912,72.912l0.241,0.241l-0.241,0.385l-72.382,72.334h12.802
		c0.239-0.225,72.96-72.96,72.96-72.96l72.912-72.912h-12.85l-66.511,66.463l-0.241,0.289l-0.289-0.289l-4.283-4.235l-0.337-0.289
		l0.337-0.289l61.65-61.65h-12.85l-55.49,55.538l-0.289-0.289l-4.283-4.235l-0.289-0.337l50.677-50.629h-12.802l-43.94,43.94
		l-0.337,0.337l-0.289-0.337l-4.283-4.283l-0.289-0.241l0.289-0.289l39.223-39.127l-12.85-0.048l-32.726,32.774l-0.337,0.241
		l-0.289-0.289l-4.283-4.235l-0.289-0.337l0.289-0.289l27.865-27.817h-12.754l-21.513,21.368l-0.241,0.337l-0.289-0.337
		l-21.464-21.368L338.589,809.078z M271.067,809.126l72.864,72.864l0.337,0.241l-0.337,0.385l-72.286,72.334h12.754l72.671-72.719
		l-73.201-73.104H271.067z"/>
	<path id="path2510" class="st1" d="M623.98,826.355c-31.061,0-56.308,25.286-56.308,56.404c0,31.057,25.247,56.308,56.308,56.308
		c31.074,0,56.308-25.251,56.308-56.308C680.288,851.641,655.108,826.355,623.98,826.355z M738.425,826.355l-34.074,47.212v-47.164
		h-19.299v110.739h19.299v-45.624l32.389,45.624h24.256L719.8,882.856l42.833-56.501H738.425z M800.941,826.355
		c-31.105,0-56.356,25.276-56.356,56.308c-0.027,31.144,25.251,56.404,56.356,56.404c31.115,0,56.385-25.261,56.356-56.404
		C857.298,851.632,832.016,826.355,800.941,826.355z M494.615,827.318l34.892,69.399v41.389h18.24v-41.389l34.892-69.399h-20.694
		l-23.293,47.79l-23.341-47.79H494.615z M862.11,827.318v110.788h19.732V893.3h39.753v44.806h19.684V827.318h-19.684v46.972h-39.753
		v-46.972H862.11z M986.469,827.318l-40.908,110.788h20.646l10.251-28.298h39.801l10.107,28.298h20.743l-40.908-110.788H986.469z
		 M1051.248,827.318v110.788h19.732l0.337-72.431l27.721,72.431h18.384l27.673-72.431l0.337,72.431h19.78V827.318h-5.631h-14.534
		h-4.187l-32.582,84.944l-32.726-84.944h-4.235h-14.39H1051.248z M1211.846,827.318l-40.908,110.788h20.743l10.155-28.298h39.801
		l10.203,28.298h20.694l-40.859-110.788h-2.166h-16.796H1211.846z M800.989,844.74c20.962,0,37.876,17.018,37.876,37.924
		c0.029,20.977-16.975,37.972-37.924,37.972c-20.922,0-37.972-16.994-37.972-37.972C762.969,861.757,780.039,844.74,800.989,844.74z
		 M623.98,844.788c20.96,0,37.924,17.008,37.924,37.972c0,20.891-16.964,37.924-37.924,37.924
		c-20.906,0-37.924-17.033-37.924-37.924C586.056,861.796,603.073,844.788,623.98,844.788z M1221.76,856.531l13.909,37.731h-27.865
		L1221.76,856.531z M996.287,856.579l13.957,37.683h-27.817L996.287,856.579z"/>
</g>
</svg>
