<?xml version="1.0" encoding="utf-8"?>
<!-- Generator: Adobe Illustrator 19.1.1, SVG Export Plug-In . SVG Version: 6.00 Build 0)  -->
<svg version="1.1" xmlns="http://www.w3.org/2000/svg" xmlns:xlink="http://www.w3.org/1999/xlink" x="0px" y="0px" width="41px"
	 height="39px" viewBox="0 0 41 39" style="enable-background:new 0 0 41 39;" xml:space="preserve">
<style type="text/css">
	.st0{fill:#CC181E;}
	.st1{fill:#FFFFFF;}
</style>
<g id="Layer_2">
	<rect class="st0" width="41" height="39"/>
</g>
<g id="Layer_1">
	<path class="st1" d="M31.353,15.381c0-1.734-1.423-3.14-3.177-3.14c-2.503-0.104-5.064-0.151-7.676-0.146
		c-2.612-0.005-5.173,0.042-7.676,0.146c-1.754,0-3.177,1.407-3.177,3.14C9.542,16.754,9.496,18.127,9.5,19.5
		c-0.004,1.373,0.042,2.746,0.147,4.119c0,1.734,1.423,3.14,3.177,3.14c2.503,0.105,5.064,0.151,7.676,0.146
		c2.612,0.005,5.173-0.041,7.676-0.146c1.754,0,3.177-1.407,3.177-3.14c0.105-1.373,0.151-2.746,0.147-4.119
		C31.504,18.127,31.458,16.754,31.353,15.381z M18.667,22.531V16.6l6.128,3.103L18.667,22.531z"/>
</g>
</svg>
